<?xml version="1.0" ?><svg style="enable-background:new 0 0 24 24;" version="1.1" viewBox="0 0 24 24" xml:space="preserve" xmlns="http://www.w3.org/2000/svg" xmlns:xlink="http://www.w3.org/1999/xlink"><style type="text/css">
	.st0{opacity:0.2;fill:none;stroke:#D11110;stroke-width:1;stroke-miterlimit:10;}
</style><g id="grid_system"/><g id="_icons"><g><path d="M21.2,16.5L14.6,4.7c-0.5-1-1.5-1.5-2.6-1.5S9.9,3.7,9.4,4.7L2.8,16.5c-0.5,0.9-0.5,2.1,0,3S4.3,21,5.4,21h13.2    c1.1,0,2-0.6,2.6-1.5S21.7,17.5,21.2,16.5z M19.5,18.5c-0.1,0.1-0.3,0.5-0.9,0.5H5.4c-0.5,0-0.8-0.3-0.9-0.5s-0.3-0.5,0-1    l6.6-11.9c0.3-0.5,0.7-0.5,0.9-0.5s0.6,0,0.9,0.5l6.6,11.9C19.7,18,19.5,18.4,19.5,18.5z" fill="#D11110"/><path d="M12,9c-0.6,0-1,0.4-1,1v3c0,0.6,0.4,1,1,1s1-0.4,1-1v-3C13,9.4,12.6,9,12,9z" fill="#D11110"/><circle cx="12" cy="16" r="1" fill="#D11110"/></g></g></svg>