<svg width="128" height="140" viewBox="0 0 128 140" fill="none" xmlns="http://www.w3.org/2000/svg">
<path d="M64 132H28L29 114L60.5 111L74.5 116L64 132Z" fill="#87EBFF"/>
<path d="M124.5 132H58.5L72 115L124.5 132Z" fill="#87EBFF"/>
<path d="M20 132H28L42 106.5L20 34V132Z" fill="#87EBFF"/>
<path d="M53.2126 103.877L28.8334 55.608L27.4945 54.7843H11L9.66568 56.9696L51.6327 138.685L54.2743 138.736L126.307 10.7356L123.797 9.10403L53.2126 103.877Z" fill="#87EBFF" stroke="#87EBFF" stroke-width="3" stroke-linejoin="bevel"/>
<path d="M45.2126 95.8772L20.8334 47.608L19.4945 46.7843H3L1.66568 48.9696L43.6327 130.685L46.2743 130.736L118.307 2.73565L115.797 1.10403L45.2126 95.8772Z" fill="#F1C40F" stroke="#F1C40F" stroke-width="3" stroke-linejoin="bevel"/>
<path d="M22.5 32H88.5L75 49L22.5 32Z" fill="#87EBFF"/>
<path d="M127 32H119L105 57.5L127 130V32Z" fill="#87EBFF"/>
</svg>
